<?xml version="1.0" encoding="UTF-8"?>
<svg width="66px" height="70px" viewBox="0 0 66 70" version="1.1" xmlns="http://www.w3.org/2000/svg" xmlns:xlink="http://www.w3.org/1999/xlink">
    <!-- Generator: sketchtool 50.2 (55047) - http://www.bohemiancoding.com/sketch -->
    <title>D28B9723-887E-4B0E-9135-1C035112AA8A</title>
    <desc>Created with sketchtool.</desc>
    <defs></defs>
    <g id="Website" stroke="none" stroke-width="1" fill="none" fill-rule="evenodd">
        <g id="1-Home" transform="translate(-401.000000, -762.000000)" fill="#FFFFFF" fill-rule="nonzero">
            <g id="Group-3" transform="translate(90.000000, 761.000000)">
                <g id="deliver-box" transform="translate(311.000000, 1.000000)">
                    <path d="M65.4170598,15.4453072 L33.4484473,0.101923729 C33.165022,-0.0339745762 32.834978,-0.0339745762 32.5516902,0.101923729 L0.582940225,15.4453072 C0.226492699,15.6163422 0,15.9752285 0,16.3687047 L0,53.6312269 C0,54.0247031 0.226492699,54.3835895 0.582940225,54.5546245 L32.5515527,69.8980079 C32.6931966,69.9659571 32.8466671,70 33,70 C33.1533329,70 33.3066659,69.9659571 33.4484473,69.8980079 L65.4170598,54.5546245 C65.7735073,54.3835895 66,54.0247031 66,53.6312269 L66,16.3688414 C66,15.9750918 65.7733698,15.6164789 65.4170598,15.4453072 Z M33,2.16405062 L62.5962837,16.3687047 L54.0169273,20.486396 C53.9626075,20.4452437 53.9052624,20.4072359 53.842279,20.3770211 L24.4470471,6.26902708 L33,2.16405062 Z M22.1177615,7.42840095 L51.671002,21.6124105 L45.6181324,24.5175444 L16.0771311,10.339277 L22.1177615,7.42840095 Z M52.3624442,23.557643 L52.3624442,34.2963435 L46.7086528,37.0099346 L46.7086528,26.2712341 L52.3624442,23.557643 Z M63.937225,52.9878291 L34.0313875,67.3408229 L34.0313875,32.3556227 L41.1648762,28.9319151 C41.6778195,28.6856849 41.8928982,28.0727753 41.6452277,27.5626782 C41.3975572,27.0528544 40.7810625,26.8387531 40.2679816,27.08512 L33,30.5734955 L30.1401687,29.2008406 C29.6270878,28.954337 29.0105931,29.1684383 28.7629226,29.6783988 C28.515252,30.1883592 28.7303307,30.8014055 29.2432741,31.0476357 L31.9686125,32.3556227 L31.9686125,67.3408229 L2.06277504,52.9875557 L2.06277504,18.0023555 L24.8358114,28.9323253 C24.9803432,29.0017783 25.1331261,29.0345908 25.2834336,29.0345908 C25.6668347,29.0345908 26.0351088,28.8210363 26.2129201,28.4547671 C26.4605906,27.9448067 26.2455119,27.3317604 25.7325685,27.0855302 L3.40371633,16.3687047 L13.6495199,11.4512095 L44.6315759,26.3211364 C44.636114,26.3274255 44.6412022,26.3330309 44.6458778,26.3391833 L44.6458778,38.643722 C44.6458778,38.9965928 44.8283646,39.3245807 45.1289797,39.5122954 C45.295927,39.616475 45.4863899,39.6691117 45.6774028,39.6691117 C45.8303232,39.6691117 45.9836562,39.6353422 46.1257126,39.5671196 L53.842279,35.863549 C54.1987265,35.692514 54.4252192,35.3337643 54.4252192,34.9401514 L54.4252192,22.5678002 L63.937225,18.0024922 L63.937225,52.9878291 Z" id="Shape"></path>
                    <path d="M10.3956895,48.1881965 L5.53383715,46.0951416 C5.00197629,45.8659973 4.36323022,46.0650211 4.10656318,46.539069 C3.84989614,47.0131169 4.07278745,47.5829911 4.60436328,47.8118813 L9.46621565,49.9049362 C9.61599747,49.9694983 9.77433011,50 9.9300975,50 C10.3274255,50 10.709077,49.8014845 10.8933471,49.4610088 C11.1501567,48.9868338 10.9272653,48.4172138 10.3956895,48.1881965 Z" id="Shape"></path>
                    <path d="M14.4202884,45.8587911 L5.47118654,41.1122971 C4.96115677,40.8418113 4.34832817,41.0767029 4.10213047,41.6370487 C3.85606947,42.1972444 4.06986914,42.8706806 4.57976222,43.1411665 L13.5288641,47.8876605 C13.6725364,47.9638051 13.8244107,48 13.9738244,48 C14.3549456,48 14.7210297,47.7654087 14.8977835,47.3630591 C15.1439812,46.8025631 14.9301815,46.1291268 14.4202884,45.8587911 Z" id="Shape"></path>
                </g>
            </g>
        </g>
    </g>
</svg>