<?xml version="1.0" encoding="UTF-8"?>
<svg width="122px" height="62px" viewBox="0 0 122 62" version="1.1" xmlns="http://www.w3.org/2000/svg" xmlns:xlink="http://www.w3.org/1999/xlink">
    <!-- Generator: sketchtool 50.2 (55047) - http://www.bohemiancoding.com/sketch -->
    <title>A4DAA9DE-8B3F-40C9-AFAD-1429DA9B1D51</title>
    <desc>Created with sketchtool.</desc>
    <defs></defs>
    <g id="Website" stroke="none" stroke-width="1" fill="none" fill-rule="evenodd">
        <g id="1-Home" transform="translate(-90.000000, -761.000000)" fill="#FFFFFF" fill-rule="nonzero">
            <g id="Group-3" transform="translate(90.000000, 761.000000)">
                <g id="pick-your-things">
                    <g id="books" transform="translate(65.000000, 8.000000)">
                        <path d="M56.1088518,33.7267364 L54.3660611,33.7267364 C52.2704199,29.1871342 52.2701549,24.7561644 54.3660611,20.1854244 L56.1088518,20.1854244 C56.6010867,20.1854244 56.9994768,19.7824046 56.9994768,19.2854244 C56.9994768,18.7883548 56.6010867,18.3854244 56.1088518,18.3854244 L23.0652251,18.3854244 L23.0652251,17.7165441 L51.480883,17.7165441 C51.9731314,17.7165441 52.371508,17.3136154 52.371508,16.8165441 C52.371508,16.3195655 51.9731314,15.9165441 51.480883,15.9165441 L49.7381059,15.9165441 C47.6421997,11.3772147 47.6430898,6.94669473 49.7383743,2.37478491 L51.480883,2.37478491 C51.9731314,2.37478491 52.371508,1.97185491 52.371508,1.47478491 C52.371508,0.97780509 51.9731314,0.57478491 51.480883,0.57478491 L4.67088041,0.57478491 C4.34731652,0.57478491 4.0490463,0.75235491 3.89158353,1.038465 C0.656121122,6.938055 0.670014961,12.4154546 3.93158569,17.3188356 C4.09687277,17.5675953 4.37430255,17.7165441 4.67088041,17.7165441 L13.6928353,17.7165441 L13.6928353,18.3854244 L9.29883474,18.3854244 C8.97527121,18.3854244 8.67700099,18.5629051 8.51953786,18.8490148 C5.2831851,24.7482456 5.29707902,30.225555 8.55952684,35.1290246 C8.7248271,35.3776966 9.00225724,35.5267365 9.29883474,35.5267365 L56.1088526,35.5267365 C56.6010875,35.5267365 56.9994776,35.1237134 56.9994776,34.6267365 C56.9994768,34.1296635 56.6010867,33.7267364 56.1088518,33.7267364 Z M15.4740861,8.67919491 L21.2839751,8.67919491 L21.2839751,24.2815044 L18.7469404,23.1191543 C18.5120838,23.0119637 18.2459638,23.0119637 18.0111072,23.1191543 L15.4740861,24.2815044 L15.4740861,8.67919491 Z M5.15448996,15.9165442 C2.59394309,11.797605 2.60961791,7.35862545 5.20231652,2.374785 L47.7936039,2.374785 C45.9366516,6.88531473 45.9355848,11.4325654 47.7909335,15.9165442 L23.0652251,15.9165442 L23.0652251,8.679195 L37.3561034,8.679195 C37.8484435,8.679195 38.2467284,8.27626545 38.2467284,7.779195 C38.2467284,7.28221473 37.8484435,6.879195 37.3561034,6.879195 L10.7878713,6.879195 C10.2955336,6.879195 9.8972463,7.28221473 9.8972463,7.779195 C9.8972463,8.27626545 10.2955336,8.679195 10.7878713,8.679195 L13.6928353,8.679195 L13.6928353,15.9165442 L5.15448996,15.9165442 Z M9.83027121,20.1854245 L13.6928353,20.1854245 L13.6928353,25.6776753 C13.6928353,25.9835845 13.8467227,26.2683449 14.1007418,26.4339449 C14.3555372,26.6000856 14.6765177,26.6242951 14.9513642,26.4973051 L18.3790239,24.9270755 L21.8066836,26.4973051 C21.9241561,26.5513046 22.0493781,26.5776753 22.1746002,26.5776753 C22.3433743,26.5776753 22.5112567,26.5293457 22.6573188,26.4339449 C22.9113251,26.2683449 23.0652252,25.9835845 23.0652252,25.6776753 L23.0652252,20.1854245 L52.4212946,20.1854245 C50.5637171,24.6950546 50.5632721,29.2421242 52.4191576,33.7267365 L9.78155411,33.7267365 C7.22100724,29.6077046 7.23669506,25.1692657 9.83027121,20.1854245 Z" id="Shape"></path>
                        <path d="M48.2647478,38.0839039 L50.0075215,38.0839039 C50.49977,38.0839039 50.8981465,37.6808842 50.8981465,37.1839039 C50.8981465,36.6868344 50.49977,36.2839039 50.0075215,36.2839039 L3.19751947,36.2839039 C2.87395559,36.2839039 2.5756851,36.4613846 2.4182226,36.7474961 C-0.818931914,42.6467251 -0.805038253,48.1240345 2.45821184,53.027504 C2.62440246,53.2762654 2.90094143,53.425216 3.19751947,53.425216 L50.0075205,53.425216 C50.4997689,53.425216 50.8981455,53.0221963 50.8981455,52.525216 C50.8981455,52.0281464 50.4997689,51.625216 50.0075205,51.625216 L48.2647467,51.625216 C46.1691066,47.0851639 46.1689265,42.6546455 48.2647478,38.0839039 Z M3.68023831,51.6252159 C1.1188009,47.506184 1.1344759,43.0672954 3.72895541,38.0839038 L46.3199914,38.0839038 C44.4624004,42.593534 44.4622237,47.1403358 46.3178408,51.6252159 L3.68023831,51.6252159 Z" id="Shape"></path>
                    </g>
                    <g id="desk-lamp">
                        <path d="M47.203125,26.9117647 C46.7120937,26.9117647 46.3125,27.3142451 46.3125,27.8088235 C46.3125,28.303402 46.7120937,28.7058824 47.203125,28.7058824 C47.6941562,28.7058824 48.09375,28.303402 48.09375,27.8088235 C48.09375,27.3142451 47.6941562,26.9117647 47.203125,26.9117647 Z" id="Shape"></path>
                        <path d="M56.0281302,59.0531915 L55.4354193,59.0531915 L54.5190109,56.2661404 C53.8152476,54.1254298 51.7039577,52.390434 49.464381,51.9874447 L49.464381,31.9580298 C51.019243,30.9820298 52.0560337,29.251317 52.0560337,27.281666 C52.0560337,24.2401021 49.5855407,21.7657085 46.5487717,21.7657085 C46.1219265,21.7657085 45.7067437,21.8161957 45.3074996,21.908734 L27.880838,4.45442766 C28.7621295,3.84520638 29.8050105,3.51619574 30.8988176,3.51619574 C32.3222828,3.51619574 33.6604827,4.07142553 34.6670806,5.07948298 C35.8315102,6.24575106 36.386383,7.85511277 36.1896766,9.49497447 C36.1255332,10.0287894 36.505599,10.5134149 37.0385724,10.5776596 C37.0779656,10.5824617 37.1169699,10.5846681 37.1557151,10.5846681 C37.6406134,10.5846681 38.0600724,10.2216532 38.1194212,9.72729362 C38.3879164,7.49028085 37.6306355,5.29441064 36.041434,3.70282979 C34.6678581,2.32695532 32.8415204,1.56938723 30.8988176,1.56938723 C29.2840883,1.56938723 27.750737,2.0943766 26.489898,3.06129149 L23.7181254,0.285142553 C23.5359322,0.102531915 23.2886885,0 23.0309487,0 C22.7732088,0 22.5259651,0.102531915 22.3437719,0.285142553 L17.0886777,5.54853404 C12.7177258,3.70802128 7.78788402,4.0300234 3.73479834,6.26054681 C3.66624912,6.28819149 3.60055073,6.32492128 3.53848064,6.36878936 C2.36562821,7.03680426 1.26884078,7.86575532 0.284660655,8.85148936 C-0.0948868852,9.23163617 -0.0948868852,9.84799574 0.284660655,10.2280128 L20.6157875,30.5912404 C20.8054965,30.7812489 21.0542951,30.876383 21.3029642,30.876383 C21.5516333,30.876383 21.8004319,30.7813787 21.9901409,30.5912404 C22.9730252,29.6068043 23.7997624,28.5099723 24.4662059,27.3370851 C24.5119486,27.2729702 24.5496571,27.2049617 24.5779062,27.1338383 C26.8040063,23.0746128 27.125112,18.1380255 25.2877598,13.7608213 L29.8555478,9.18582128 L43.4048378,22.7565043 C42.8696615,23.1305511 42.4039415,23.5971362 42.0304843,24.1330277 L30.5437611,12.6281681 C30.1642136,12.2480213 29.5488257,12.2480213 29.1694077,12.6281681 C28.7898602,13.0083149 28.7898602,13.6245447 29.1694077,14.0046915 L41.1840505,26.0383043 C41.0916581,26.4381787 41.0412505,26.8538872 41.0412505,27.2815362 C41.0412505,29.2511872 42.0780411,30.9819 43.6329032,31.9579 L43.6329032,48.9785872 C43.6329032,49.516166 44.0680417,49.9519915 44.604773,49.9519915 C45.1415042,49.9519915 45.5766427,49.516166 45.5766427,48.9785872 L45.5766427,32.7097574 C45.8924356,32.7663447 46.216781,32.7974936 46.5485125,32.7974936 C46.880244,32.7974936 47.2045894,32.7663447 47.5203823,32.7097574 L47.5203823,51.8988 L34.0603747,51.8988 L34.0603747,48.9785872 C34.0603747,48.4410085 33.6252362,48.005183 33.0885049,48.005183 L29.2010259,48.005183 C28.6642946,48.005183 28.2291561,48.4410085 28.2291561,48.9785872 L28.2291561,51.8988 L25.3135468,51.8988 C22.7393877,51.8988 20.0921441,53.8170553 19.2870471,56.2660106 L18.3706387,59.0531915 L17.7779278,59.0531915 C17.2411965,59.0531915 16.806058,59.489017 16.806058,60.0265957 C16.806058,60.5641745 17.2411965,61 17.7779278,61 L19.055483,61 C19.0578155,61 19.0601479,61 19.0623508,61 L54.7281572,61 C54.7360618,61 56.0281302,61 56.0281302,61 C56.5648615,61 57,60.5641745 57,60.0265957 C57,59.489017 56.5648615,59.0531915 56.0281302,59.0531915 Z M21.2780843,28.5014064 L2.37132984,9.5648 C2.87190756,9.13157021 3.39956806,8.74000213 3.94912802,8.39087447 L22.4497705,26.9218957 C22.1013228,27.4720638 21.7105016,28.0002979 21.2780843,28.5014064 Z M23.4406889,12.8580213 C23.1500351,13.149134 23.0737109,13.5918383 23.2498137,13.9636787 C24.9474758,17.5464553 24.935943,21.6251489 23.4037579,25.1242128 L5.74397711,7.43538085 C9.23739539,5.90116596 13.3094001,5.88974468 16.8862696,7.58995745 C17.2575239,7.76646809 17.6994007,7.6900234 17.9901841,7.39891064 L23.0309487,2.35018723 L28.4815831,7.80929787 L23.4406889,12.8580213 Z M42.9853788,27.281666 C42.9853788,25.3135723 44.5839102,23.712517 46.5489012,23.712517 C48.5138923,23.712517 50.1124237,25.3135723 50.1124237,27.281666 C50.1124237,29.2497596 48.5138923,30.8508149 46.5489012,30.8508149 C44.5839102,30.8508149 42.9853788,29.2496298 42.9853788,27.281666 Z M30.1728956,49.9521213 L32.1166352,49.9521213 L32.1166352,51.8989298 L30.1728956,51.8989298 L30.1728956,49.9521213 Z M21.1330814,56.8751021 C21.6730522,55.233034 23.5873765,53.8457383 25.3134172,53.8457383 L48.4925112,53.8457383 C50.2185519,53.8457383 52.1330058,55.233034 52.672847,56.8751021 L53.3890503,59.0531915 L20.4168781,59.0531915 L21.1330814,56.8751021 Z" id="Shape"></path>
                    </g>
                </g>
            </g>
        </g>
    </g>
</svg>