<?xml version="1.0" encoding="UTF-8"?>
<svg width="114px" height="61px" viewBox="0 0 114 61" version="1.1" xmlns="http://www.w3.org/2000/svg" xmlns:xlink="http://www.w3.org/1999/xlink">
    <!-- Generator: sketchtool 50.2 (55047) - http://www.bohemiancoding.com/sketch -->
    <title>049F53C4-5CA3-4720-9F10-151637475A33</title>
    <desc>Created with sketchtool.</desc>
    <defs></defs>
    <g id="Website" stroke="none" stroke-width="1" fill="none" fill-rule="evenodd">
        <g id="1-Home" transform="translate(-699.000000, -768.000000)" fill="#FFFFFF" fill-rule="nonzero">
            <g id="Group-3" transform="translate(90.000000, 761.000000)">
                <g id="truck" transform="translate(609.000000, 7.000000)">
                    <path d="M21.5039894,51 L21.4878324,51 C20.6616356,51 20,51.6716 20,52.5 C20,53.3284 20.6777926,54 21.5039894,54 C22.3301862,54 23,53.3284 23,52.5 C23,51.6716 22.3301862,51 21.5039894,51 Z" id="Shape"></path>
                    <path d="M35.5039894,51 L35.4880319,51 C34.6618351,51 34,51.6716 34,52.5 C34,53.3284 34.6777926,54 35.5039894,54 C36.3301862,54 37,53.3284 37,52.5 C37,51.6716 36.3301862,51 35.5039894,51 Z" id="Shape"></path>
                    <path d="M94.5039894,51 L94.4880319,51 C93.6618351,51 93,51.6716 93,52.5 C93,53.3284 93.6777926,54 94.5039894,54 C95.3301862,54 96,53.3284 96,52.5 C96,51.6716 95.3301862,51 94.5039894,51 Z" id="Shape"></path>
                    <path d="M112.46545,30.0542558 L110.22018,27.7886892 L105.69691,14.0959854 C106.371782,13.8796287 106.860959,13.2426909 106.860959,12.4902729 C106.860959,11.5596921 106.113278,10.8052521 105.191034,10.8052521 L89.0125761,10.8052521 L89.0125761,3.48597105 C89.0125761,1.56369931 87.4628856,0 85.557835,0 L3.45474112,0 C1.54969053,3.19274479e-15 0,1.56392398 0,3.48597105 L0,43.1073257 C0,45.0295974 1.54969053,46.5932967 3.45474112,46.5932967 L5.35444795,46.5932967 L5.35444795,50.310228 C5.35444795,52.2324997 6.90413848,53.796199 8.80918908,53.796199 L12.6546927,53.796199 C13.4375536,57.8941696 17.0167598,61 21.3031236,61 C24.238184,61 26.840818,59.542794 28.4423876,57.3091304 C30.0441798,59.542794 32.6468137,61 35.5818742,61 C39.868238,61 43.4476669,57.8941696 44.2303051,53.796199 L85.8332613,53.796199 C86.6161222,57.8941696 90.1953285,61 94.4816923,61 C99.3391705,61 103.290881,57.0123421 103.290881,52.1111782 C103.290881,52.0854161 105.709007,52.0470725 110.545259,51.9961475 C112.450309,51.9961475 114,50.4324482 114,48.5101764 L114,33.7925307 C114.000223,32.3804832 113.455159,31.0529115 112.46545,30.0542558 Z M12.6546927,51.0476171 L8.69429823,51.0476171 C8.63084107,51.0476171 8.17660965,50.3744834 8.17660965,50.3104527 L8.17660965,46.2361027 L14.4043289,46.2361027 C13.540421,47.3338376 12.9274471,49.6191688 12.6546927,51.0476171 Z M21.3031084,58.3857143 C18.0808323,58.3857143 15.4594767,55.7404224 15.4594767,52.4892578 C15.4594767,49.2503355 18.0613249,46.6136852 21.2667106,46.5935214 L21.339982,46.5935214 C24.5453676,46.6134451 27.1472158,49.2500954 27.1472158,52.4892578 C27.1469779,55.7404224 24.5253845,58.3857143 21.3031084,58.3857143 Z M35.5820968,58.3857143 C32.3598207,58.3857143 29.7382273,55.7404224 29.7382273,52.4892578 C29.7382273,49.2503355 32.3400755,46.6136852 35.5454611,46.5935214 L35.6187325,46.5935214 C38.8241182,46.6134451 41.4259664,49.2500954 41.4259664,52.4892578 C41.4257285,55.7404224 38.8043729,58.3857143 35.5820968,58.3857143 Z M86.429223,51.2978107 L44.1580958,51.2978107 C43.8809607,49.8199673 43.2581421,47.8339157 42.380133,46.6982217 L75.2678066,46.6982217 C76.2048624,46.6982217 76.8110571,46.2925289 76.8110571,45.3297691 C76.8110571,44.3670093 76.2048624,43.8456032 75.2678066,43.8456032 L2.7274231,43.8456032 C2.68443888,43.8456032 2.64552686,30.1418101 2.61068702,2.73422393 C2.61068702,2.69006063 30.4567649,2.65008123 86.1489207,2.61428571 C86.1919049,2.61428571 86.2308169,16.3581357 86.2656567,43.8458356 L82.5226368,43.8458356 C81.5855809,43.8458356 80.9698529,44.3670093 80.9698529,45.3297691 C80.9698529,46.2925289 81.7942469,46.6982217 82.7313028,46.6982217 L89.1787248,46.6982217 C87.9589552,47.7364212 86.706358,49.8199673 86.429223,51.2978107 Z M107.697257,28.8147545 L96.2667309,28.8147545 C96.2032738,28.8147545 96.1518401,28.7628559 96.1518401,28.6988251 L96.1518401,21.37887 L105.240908,21.37887 L107.697257,28.8147545 Z M94.5112551,58.3857143 C91.2889916,58.3857143 88.6676463,55.7404327 88.6676463,52.4892808 C88.6676463,49.2503712 91.2694844,46.6137312 94.4748575,46.5935675 L94.511493,46.5935675 C94.5155372,46.5935675 94.5195814,46.5930875 94.5238635,46.5928474 C97.7404175,46.5995686 100.35534,49.2419697 100.35534,52.4890408 C100.354864,55.7404327 97.7335186,58.3857143 94.5112551,58.3857143 Z M111.133915,48.5106258 C111.133915,48.5746566 110.608939,49.1143629 110.545481,49.1143629 L102.58506,49.1143629 C101.2391,45.9404577 98.1141134,43.785366 94.4819149,43.785366 C94.4741962,43.785366 92.6510832,43.7856656 89.0125761,43.7862647 L89.0125761,14.2918972 C89.0125761,14.2269677 89.0640098,13.6801102 89.127467,13.6801102 L102.921502,13.6801102 L104.187974,18.6657735 L95.1178221,18.6657735 C94.1955781,18.6657735 93.447897,19.4202134 93.447897,20.3507943 L93.447897,28.6988251 C93.447897,30.6210968 94.9975875,31.5050285 96.9026381,31.5050285 L109.853687,31.5050285 L110.103953,32.4373246 C110.462653,32.7994917 111.133915,33.2807337 111.133915,33.7927553 L111.133915,37.8206291 L108.760665,37.8206291 C107.838421,37.8206291 107.09074,38.5750691 107.09074,39.5056499 C107.09074,40.4362307 107.838421,41.1906707 108.760665,41.1906707 L111.133915,41.1906707 L111.133915,48.5106258 Z" id="Shape"></path>
                    <path d="M80.3241222,37 L8.67587779,37 C7.75034635,37 7,37.4477333 7,38 C7,38.5522667 7.75034635,39 8.67587779,39 L80.3241222,39 C81.2496537,39 82,38.5522667 82,38 C82,37.4477333 81.2496537,37 80.3241222,37 Z" id="Shape"></path>
                </g>
            </g>
        </g>
    </g>
</svg>