<?xml version="1.0" encoding="UTF-8"?>
<svg width="63px" height="63px" viewBox="0 0 63 63" version="1.1" xmlns="http://www.w3.org/2000/svg" xmlns:xlink="http://www.w3.org/1999/xlink">
    <!-- Generator: sketchtool 50.2 (55047) - http://www.bohemiancoding.com/sketch -->
    <title>E766821A-1853-4A33-844A-15CD85470C66</title>
    <desc>Created with sketchtool.</desc>
    <defs></defs>
    <g id="Website" stroke="none" stroke-width="1" fill="none" fill-rule="evenodd">
        <g id="1-Home" transform="translate(-1043.000000, -766.000000)" fill="#FFFFFF" fill-rule="nonzero">
            <g id="Group-3" transform="translate(90.000000, 761.000000)">
                <g id="scan-barcode" transform="translate(953.000000, 5.000000)">
                    <g id="qr-code" transform="translate(8.000000, 8.000000)">
                        <path d="M18,0 L0,0 L0,18 L18,18 L18,0 Z M15,15 L3,15 L3,3 L15,3 L15,15 Z" id="Shape"></path>
                        <polygon id="Shape" points="6 6 12 6 12 12 6 12"></polygon>
                        <path d="M0,47 L18,47 L18,29 L0,29 L0,47 Z M3,32 L15,32 L15,44 L3,44 L3,32 Z" id="Shape"></path>
                        <polygon id="Shape" points="6 36 12 36 12 42 6 42"></polygon>
                        <path d="M29,0 L29,18 L47,18 L47,0 L29,0 Z M44,15 L32,15 L32,3 L44,3 L44,15 Z" id="Shape"></path>
                        <polygon id="Shape" points="36 6 42 6 42 12 36 12"></polygon>
                        <polygon id="Shape" points="6 20 0 20 0 26 9 26 9 23 6 23"></polygon>
                        <polygon id="Shape" points="20 27 26 27 26 33 20 33"></polygon>
                        <polygon id="Shape" points="9 20 15 20 15 23 9 23"></polygon>
                        <polygon id="Shape" points="26 36 20 36 20 39 23 39 23 42 26 42 26 39"></polygon>
                        <polygon id="Shape" points="18 20 18 23 15 23 15 26 21 26 21 20"></polygon>
                        <polygon id="Shape" points="24 11 27 11 27 17 24 17"></polygon>
                        <polygon id="Shape" points="27 23 27 26 33 26 33 20 24 20 24 23"></polygon>
                        <polygon id="Shape" points="20 18 23 18 23 21 20 21"></polygon>
                        <polygon id="Shape" points="27 41 33 41 33 47 27 47"></polygon>
                        <polygon id="Shape" points="20 41 23 41 23 47 20 47"></polygon>
                        <polygon id="Shape" points="27 32 30 32 30 35 27 35"></polygon>
                        <polygon id="Shape" points="26 8.25 26 2.75 23 2.75 23 0 20 0 20 11 23 11 23 8.25"></polygon>
                        <polygon id="Shape" points="36 41 39 41 39 47 36 47"></polygon>
                        <polygon id="Shape" points="36 36 42 36 42 39 36 39"></polygon>
                        <polygon id="Shape" points="32 38 35 38 35 41 32 41"></polygon>
                        <polygon id="Shape" points="29 36 32 36 32 39 29 39"></polygon>
                        <polygon id="Shape" points="41 29 41 32 44 32 44 35 47 35 47 29 44 29"></polygon>
                        <polygon id="Shape" points="44 38 41 38 41 47 47 47 47 41 44 41"></polygon>
                        <polygon id="Shape" points="29 30 29 33 38 33 38 27 32 27 32 30"></polygon>
                        <polygon id="Shape" points="36 20 36 23 41.5 23 41.5 26 47 26 47 20 41.5 20"></polygon>
                    </g>
                    <g id="barcode">
                        <path d="M59.4339623,0 L56.7594549,0 C56.2666769,0 55.8679245,0.398752339 55.8679245,0.891530329 C55.8679245,1.38430832 56.2666769,1.78306066 56.7594549,1.78306066 L59.4339623,1.78306066 C60.4177631,1.78306066 61.2169393,2.58315626 61.2169393,3.56603774 L61.2169393,6.24054514 C61.2169393,6.73332313 61.6156917,7.13207547 62.1084697,7.13207547 C62.6012477,7.13207547 63,6.73332313 63,6.24054514 L63,3.56603774 C63,1.59927185 61.3998088,0 59.4339623,0 Z" id="Shape"></path>
                        <path d="M0.891530329,7.13207547 C1.38430832,7.13207547 1.78306066,6.73331846 1.78306066,6.2405347 L1.78306066,3.56599595 C1.78306066,2.58310296 2.58232048,1.78299797 3.56603774,1.78299797 L6.24054514,1.78299797 C6.73332313,1.78299797 7.13207547,1.38424096 7.13207547,0.891457197 C7.13199189,0.398757012 6.73332313,0 6.24054514,0 L3.56603774,0 C1.60019121,0 0,1.59929059 0,3.56607953 L0,6.24061827 C0,6.73340204 0.398752339,7.13207547 0.891530329,7.13207547 Z" id="Shape"></path>
                        <path d="M62.1084697,55.8679245 C61.6156917,55.8679245 61.2169393,56.2666769 61.2169393,56.7594549 L61.2169393,59.4339623 C61.2169393,60.4168437 60.4176795,61.2169393 59.4339623,61.2169393 L56.7594549,61.2169393 C56.2666769,61.2169393 55.8679245,61.6156917 55.8679245,62.1084697 C55.8679245,62.6012477 56.2666769,63 56.7594549,63 L59.4339623,63 C61.3998088,62.9999164 63,61.4006446 63,59.4338787 L63,56.7593713 C63,56.2666769 62.6012477,55.8679245 62.1084697,55.8679245 Z" id="Shape"></path>
                        <path d="M6.24054514,61.217002 L3.56603774,61.217002 C2.5822369,61.217002 1.78306066,60.416897 1.78306066,59.4340041 L1.78306066,56.7594653 C1.78306066,56.2666815 1.38430832,55.8679245 0.891530329,55.8679245 C0.398752339,55.8679245 0,56.2666815 0,56.7593817 L0,59.4339205 C0,61.4007094 1.60019121,63 3.56603774,63 L6.24054514,63 C6.73332313,63 7.13207547,62.601243 7.13207547,62.1084592 C7.13199189,61.615759 6.73332313,61.217002 6.24054514,61.217002 Z" id="Shape"></path>
                    </g>
                </g>
            </g>
        </g>
    </g>
</svg>